<svg width="47" height="33" viewBox="0 0 47 33" fill="none" xmlns="http://www.w3.org/2000/svg">
<path d="M23.5 10.125C21.8092 10.125 20.1877 10.7966 18.9922 11.9922C17.7966 13.1877 17.125 14.8092 17.125 16.5C17.125 18.1908 17.7966 19.8123 18.9922 21.0078C20.1877 22.2034 21.8092 22.875 23.5 22.875C25.1908 22.875 26.8123 22.2034 28.0078 21.0078C29.2034 19.8123 29.875 18.1908 29.875 16.5C29.875 14.8092 29.2034 13.1877 28.0078 11.9922C26.8123 10.7966 25.1908 10.125 23.5 10.125ZM23.5 27.125C20.6821 27.125 17.9796 26.0056 15.987 24.013C13.9944 22.0204 12.875 19.3179 12.875 16.5C12.875 13.6821 13.9944 10.9796 15.987 8.98699C17.9796 6.99442 20.6821 5.875 23.5 5.875C26.3179 5.875 29.0204 6.99442 31.013 8.98699C33.0056 10.9796 34.125 13.6821 34.125 16.5C34.125 19.3179 33.0056 22.0204 31.013 24.013C29.0204 26.0056 26.3179 27.125 23.5 27.125ZM23.5 0.5625C12.875 0.5625 3.80125 7.17125 0.125 16.5C3.80125 25.8288 12.875 32.4375 23.5 32.4375C34.125 32.4375 43.1987 25.8288 46.875 16.5C43.1987 7.17125 34.125 0.5625 23.5 0.5625Z" fill="#69688C"/>
</svg>
